<?xml version="1.0" encoding="iso-8859-1"?>
<!-- Uploaded to: SVG Repo, www.svgrepo.com, Generator: SVG Repo Mixer Tools -->
<svg height="800px" width="800px" version="1.1" id="Capa_1" xmlns="http://www.w3.org/2000/svg" xmlns:xlink="http://www.w3.org/1999/xlink" 
	 viewBox="0 0 8.454 8.454" xml:space="preserve">
<g>
	<path style="fill:#010002;" d="M3.514,1.859c0.05-0.035,0.102-0.069,0.151-0.104c0.357-0.242,0.15-0.778-0.269-0.495
		c-0.112,0.077-0.24,0.168-0.373,0.266C1.98,0.825,1.112,0.297,0.793,0.099C0.478-0.095-0.009,0.506,0.294,0.691
		c0.672,0.416,1.391,0.853,2.112,1.312c-1.52,1.248-3.389,3.33-1.8,4.912c1.085,1.081,2.727,1.289,4.181,1.421
		c1.023,0.095,2.274,0.142,3.16-0.464C9.777,6.623,6.271,3.763,3.514,1.859z M2.52,7.18c-3.142-1.001-1.342-3.421,0.388-4.854
		C3.47,2.695,4.022,3.081,4.556,3.488C4.324,3.914,4.112,4.349,3.909,4.79C3.475,4.296,3.026,3.814,2.564,3.348
		c-0.176-0.176-0.522,0.23-0.343,0.409c0.5,0.503,0.983,1.022,1.447,1.555C3.426,5.861,3.194,6.415,2.966,6.968
		C2.833,7.293,3.289,7.206,3.387,6.97c0.182-0.444,0.369-0.888,0.562-1.328c0.373,0.44,0.738,0.89,1.088,1.351
		c0.166,0.219,0.55-0.143,0.407-0.331c-0.404-0.531-0.823-1.05-1.26-1.557c0.213-0.466,0.439-0.928,0.682-1.382
		C5.886,4.53,6.81,5.417,7.484,6.429C8.875,8.508,3.181,7.391,2.52,7.18z"/>
</g>
</svg>